<?xml version="1.0" standalone="no"?><!DOCTYPE svg PUBLIC "-//W3C//DTD SVG 1.1//EN" "http://www.w3.org/Graphics/SVG/1.1/DTD/svg11.dtd"><svg t="1588921197782" class="icon" viewBox="0 0 1024 1024" version="1.1" xmlns="http://www.w3.org/2000/svg" p-id="1535" xmlns:xlink="http://www.w3.org/1999/xlink" width="200" height="200"><defs><style type="text/css"></style></defs><path d="M213.333333 341.333333a298.666667 298.666667 0 1 1 597.333334 0h6.314666a128 128 0 0 1 127.616 118.186667l29.525334 384a128 128 0 0 1-127.573334 137.813333H177.493333a128 128 0 0 1-127.616-137.813333l29.525334-384A128 128 0 0 1 207.018667 341.333333H213.333333z m85.333334 0h426.666666A213.333333 213.333333 0 0 0 298.666667 341.333333z m-91.648 85.333334a42.666667 42.666667 0 0 0-42.538667 39.381333l-29.525333 384A42.666667 42.666667 0 0 0 177.493333 896h669.013334a42.666667 42.666667 0 0 0 42.538666-45.952l-29.525333-384a42.666667 42.666667 0 0 0-42.538667-39.381333H207.018667z" p-id="1536" fill="#d81e06"></path><path d="M298.666667 597.333333a213.333333 213.333333 0 0 0 426.666666 0 42.666667 42.666667 0 0 0-85.333333 0 128 128 0 0 1-256 0 42.666667 42.666667 0 0 0-85.333333 0z" p-id="1537" fill="#d81e06"></path></svg>